<svg width="16" height="16" viewBox="0 0 16 16" fill="none" xmlns="http://www.w3.org/2000/svg">
<g clip-path="url(#clip0_1_1879)">
<path d="M5.03333 14.5001C11.07 14.5001 14.3723 9.49813 14.3723 5.16146C14.3723 5.0208 14.369 4.87713 14.3627 4.73646C15.0052 4.27179 15.5596 3.69621 16 3.0368C15.4017 3.3028 14.7667 3.4768 14.116 3.55213C14.8008 3.14166 15.3136 2.49681 15.5593 1.73713C14.915 2.11902 14.2104 2.38843 13.4757 2.5338C12.9807 2.00757 12.3261 1.65911 11.6132 1.54228C10.9002 1.42546 10.1687 1.54679 9.53161 1.88752C8.89456 2.22824 8.38752 2.76937 8.08891 3.42721C7.79031 4.08506 7.71677 4.82296 7.87967 5.5268C6.575 5.46133 5.29865 5.12242 4.13336 4.53206C2.96806 3.94169 1.93984 3.11303 1.11533 2.0998C0.696305 2.82229 0.568091 3.67723 0.756747 4.49086C0.945403 5.30449 1.43677 6.01576 2.131 6.48013C1.60977 6.46361 1.09995 6.3233 0.643667 6.0708V6.11146C0.643231 6.86962 0.905349 7.60455 1.38547 8.19131C1.86559 8.77808 2.53409 9.18048 3.27733 9.33013C2.79463 9.46221 2.28801 9.48149 1.79667 9.38646C2.00644 10.0385 2.41454 10.6087 2.964 11.0176C3.51346 11.4266 4.17688 11.6537 4.86167 11.6675C4.18054 12.2026 3.40049 12.5981 2.56623 12.8313C1.73197 13.0644 0.859899 13.1306 0 13.0261C1.50191 13.9895 3.24899 14.5012 5.03333 14.5001Z" fill="#636270"/>
</g>
<defs>
<clipPath id="clip0_1_1879">
<rect width="16" height="16" fill="white"/>
</clipPath>
</defs>
</svg>
